<?xml version="1.0" standalone="no"?>
<!DOCTYPE svg PUBLIC "-//W3C//DTD SVG 20010904//EN"
 "http://www.w3.org/TR/2001/REC-SVG-20010904/DTD/svg10.dtd">
<svg version="1.0" xmlns="http://www.w3.org/2000/svg"
 width="766.000000pt" height="231.000000pt" viewBox="0 0 766.000000 231.000000"
 preserveAspectRatio="xMidYMid meet">

<g transform="translate(0.000000,231.000000) scale(0.100000,-0.100000)"
fill="#000000" stroke="none">
<path d="M3200 2219 c-703 -8 -1022 -19 -1765 -60 -456 -25 -904 -57 -975 -69
-148 -27 -272 -142 -320 -297 -31 -99 -61 -407 -61 -625 -1 -178 16 -409 42
-576 27 -179 129 -308 285 -363 58 -21 302 -44 819 -79 905 -60 1548 -81 2555
-81 1047 0 1780 24 2780 92 522 35 656 48 714 68 122 43 219 142 259 266 37
113 68 413 68 655 1 192 -26 499 -52 609 -26 108 -104 222 -189 275 -92 59
-112 62 -660 96 -179 11 -361 22 -405 25 -44 3 -224 12 -400 20 -968 44 -1655
55 -2695 44z m3855 -448 c-5 -32 -3 -41 14 -53 12 -8 18 -18 14 -22 -4 -4 0
-4 9 -1 9 4 19 2 23 -4 3 -6 1 -12 -4 -12 -6 -1 -14 -2 -18 -4 -56 -15 -63
-19 -63 -37 0 -10 -4 -17 -9 -14 -5 4 -7 -3 -4 -14 4 -14 0 -20 -11 -20 -9 0
-16 5 -16 10 0 24 -41 55 -69 52 -31 -3 -49 12 -30 24 8 5 9 3 4 -7 -5 -8 -4
-11 1 -6 5 5 9 16 9 25 0 9 6 16 13 14 8 -1 11 1 8 6 -2 4 -7 26 -9 49 l-5 41
39 -13 c24 -9 41 -10 44 -4 4 5 10 7 15 4 4 -3 10 2 14 10 3 8 13 15 22 15 13
0 15 -7 9 -39z m-5930 -1187 c15 -24 21 -26 61 -20 24 3 45 2 48 -2 3 -5 -4
-23 -15 -41 -18 -29 -18 -34 -4 -61 24 -46 20 -53 -24 -47 -34 4 -43 1 -67
-25 -26 -27 -30 -28 -41 -12 -7 10 -13 30 -13 44 0 21 -8 30 -37 44 l-38 18
24 19 c13 10 29 19 37 19 7 0 16 16 20 38 11 62 22 67 49 26z"/>
<path d="M6985 1651 c-3 -5 0 -13 6 -17 8 -5 9 -3 4 6 -6 10 -4 12 9 7 10 -4
15 -3 11 3 -8 13 -22 13 -30 1z"/>
</g>
</svg>
