<?xml version="1.0" encoding="UTF-8"?>
<!DOCTYPE svg PUBLIC "-//W3C//DTD SVG 1.1//EN" "http://www.w3.org/Graphics/SVG/1.1/DTD/svg11.dtd">
<!-- Creator: CorelDRAW 2018 (64-Bit) -->
<svg xmlns="http://www.w3.org/2000/svg" xml:space="preserve" width="25.271mm" height="27.463mm" version="1.1" style="shape-rendering:geometricPrecision; text-rendering:geometricPrecision; image-rendering:optimizeQuality; fill-rule:evenodd; clip-rule:evenodd"
viewBox="0 0 2527.1 2746.3"
 xmlns:xlink="http://www.w3.org/1999/xlink">
 <defs>
  <style type="text/css">
   <![CDATA[
    .fil0 {fill:#70BFFF}
    .fil1 {fill:#70BFFF;fill-rule:nonzero}
    .fil2 {fill:#FFED99;fill-rule:nonzero}
   ]]>
  </style>
 </defs>
 <g id="Слой_x0020_1">
  <metadata id="CorelCorpID_0Corel-Layer"/>
  <g id="_3096370602816">
   <path class="fil0" d="M422.16 564.16l159.44 -2.3 0 -0.26 8.86 0.13 8.84 -0.13 0 0.26 159.45 2.3c293.7,350.44 422.18,840.68 422.18,1297.79l0 689.25c0,107.45 -87.65,195.1 -195.1,195.1l-386.53 0 -17.7 0 -386.52 0c-107.45,0 -195.1,-87.65 -195.1,-195.1l0 -689.25c0,-457.11 128.48,-947.35 422.18,-1297.79zm398.63 860.16c78.59,0 142.31,157.28 142.31,351.27 0,193.99 -63.72,351.25 -142.31,351.25 -78.6,0 -142.32,-157.26 -142.32,-351.25 0,-193.99 63.72,-351.27 142.32,-351.27z"/>
   <path class="fil1" d="M889.9 2070c-1.43,0.22 -2.86,0.43 -4.31,0.59l-0.01 0c1.44,-0.17 2.89,-0.36 4.32,-0.59z"/>
   <polygon class="fil2" points="452.16,453.21 750.63,453.21 750.63,18.09 452.16,18.09 "/>
   <path class="fil2" d="M1770.08 433.4l358.36 0 335.88 343.32c28.52,30.02 47.98,63.03 57.02,99 9.01,36 7.44,75.01 -4.52,112.51l-101.98 331.34c-7.49,20.97 -12,41.99 -13.49,64.47 -1.48,21.01 -1.48,43.51 1.49,64.52l122.94 1034.62c3,33.02 0,62.96 -8.96,91.49 -9,28.46 -26.98,55.48 -49.5,79.45 -23.97,25.53 -49.48,43.5 -79.46,55.47 -29.96,13.49 -62.96,19.5 -98.97,19.5l-215.94 0 -247.38 0 -215.94 0c-36.02,0 -68.96,-6.01 -98.98,-19.5 -28.49,-11.97 -55.47,-29.94 -79.46,-55.47 -22.47,-23.97 -39.01,-50.99 -47.97,-79.45 -10.49,-28.53 -13.54,-58.47 -9,-91.49l122.94 -1034.62c1.5,-21.01 3,-43.51 0,-64.52 -1.51,-22.48 -5.99,-43.5 -11.99,-64.47l-103.48 -331.34c-12.01,-37.5 -13.48,-76.51 -4.47,-112.51 8.99,-35.97 28.5,-68.98 56.96,-99l335.9 -343.32z"/>
   <polygon class="fil1" points="2096.93,0 1801.55,0 1801.55,326.88 1825.57,326.88 2072.95,326.88 2096.93,326.88 "/>
  </g>
 </g>
</svg>
