<?xml version="1.0" encoding="UTF-8"?>
<!DOCTYPE svg PUBLIC "-//W3C//DTD SVG 1.1//EN" "http://www.w3.org/Graphics/SVG/1.1/DTD/svg11.dtd">
<!-- Creator: CorelDRAW 2018 (64-Bit) -->
<svg xmlns="http://www.w3.org/2000/svg" xml:space="preserve" width="29.333mm" height="23.635mm" version="1.1" style="shape-rendering:geometricPrecision; text-rendering:geometricPrecision; image-rendering:optimizeQuality; fill-rule:evenodd; clip-rule:evenodd"
viewBox="0 0 2933.3 2363.5"
 xmlns:xlink="http://www.w3.org/1999/xlink">
 <defs>
  <style type="text/css">
   <![CDATA[
    .fil0 {fill:#70BFFF}
    .fil1 {fill:#FFED99}
   ]]>
  </style>
 </defs>
 <g id="Слой_x0020_1">
  <metadata id="CorelCorpID_0Corel-Layer"/>
  <g id="_3060206648608">
   <path class="fil0" d="M2930.55 683.45l0 -458.05 -735.48 138.29c-60.59,11.43 -111.09,46.71 -143.62,94.31 -32.6,47.71 -47.14,107.72 -35.71,168.46l0.08 0.44c11.49,60.5 46.74,110.92 94.27,143.41 47.71,32.6 107.72,47.14 168.47,35.71l651.99 -122.57z"/>
   <path class="fil0" d="M3.34 225.41l0 458.05 651.98 122.56c60.75,11.43 120.76,-3.11 168.47,-35.71 47.53,-32.49 82.79,-82.91 94.27,-143.41l0.09 -0.44c11.42,-60.74 -3.11,-120.75 -35.72,-168.46 -32.53,-47.61 -83.03,-82.88 -143.62,-94.32l-0.21 -0.04 -735.26 -138.23z"/>
   <path class="fil1" d="M2095.46 2289.19c488.21,-162.82 802.8,-540.48 837.85,-1145.43 -256.08,34.55 -445.96,163.33 -579.17,341.17 -164.82,220.05 -245.34,515.7 -258.68,804.26z"/>
   <path class="fil0" d="M2176.09 219.35l708.8 -133.27c-5.94,-7.62 -12.37,-14.84 -19.25,-21.62 -40.39,-39.78 -96.33,-64.46 -158.1,-64.46l-2481.19 0c-69.35,0 -134.78,31.46 -177.35,86.09l716.36 134.68c100.24,18.84 183.62,76.92 237.17,155.26 52.08,76.21 76.01,171.73 59.91,269.11l0 0.53 -1.42 7.56c-18.84,100.24 -76.92,183.62 -155.27,237.18 -78.3,53.51 -177.01,77.32 -277.18,58.49l-625.23 -117.54 0 162.08c71.02,4.64 138.43,16.03 202.12,33.36 244.6,66.54 432.62,219.79 559.31,413.62 125.33,191.73 190.37,423.36 190.37,649.31 0,73.46 -6.86,146.46 -20.73,217.43 173.92,35.1 352.73,54.18 525.94,56.16 171.31,1.96 337.46,-12.77 488.23,-45.21 9.45,-325.57 98.78,-665.72 289.44,-920.27 158.55,-211.67 385.51,-363.74 692.53,-400.31l0 -166.17 -625.23 117.54c-100.18,18.83 -198.88,-4.98 -277.19,-58.49 -78.35,-53.56 -136.43,-136.94 -155.27,-237.18l-1.42 -7.56 0 -0.53c-16.1,-97.38 7.83,-192.9 59.91,-269.11 53.55,-78.34 136.93,-136.42 237.18,-155.26l7.56 -1.42z"/>
   <path class="fil1" d="M-0.01 1139.26c30.72,575.24 327.65,956.36 793,1131.79 11,-59.1 16.44,-119.94 16.44,-181.32 0,-198.75 -56.87,-401.97 -166.46,-569.62 -108.21,-165.56 -268.17,-296.29 -475.64,-352.73 -52.61,-14.31 -108.42,-23.89 -167.34,-28.12z"/>
  </g>
 </g>
</svg>
