<?xml version="1.0" encoding="UTF-8"?>
<!DOCTYPE svg PUBLIC "-//W3C//DTD SVG 1.1//EN" "http://www.w3.org/Graphics/SVG/1.1/DTD/svg11.dtd">
<!-- Creator: CorelDRAW 2018 (64-Bit) -->
<svg xmlns="http://www.w3.org/2000/svg" xml:space="preserve" width="28.363mm" height="28.363mm" version="1.1" style="shape-rendering:geometricPrecision; text-rendering:geometricPrecision; image-rendering:optimizeQuality; fill-rule:evenodd; clip-rule:evenodd"
viewBox="0 0 2836.3 2836.3"
 xmlns:xlink="http://www.w3.org/1999/xlink">
 <defs>
  <style type="text/css">
   <![CDATA[
    .fil0 {fill:#70BFFF}
   ]]>
  </style>
 </defs>
 <g id="Слой_x0020_1">
  <metadata id="CorelCorpID_0Corel-Layer"/>
  <path class="fil0" d="M1418.15 -0.01c783.23,0 1418.16,634.93 1418.16,1418.16 0,783.23 -634.93,1418.16 -1418.16,1418.16 -783.23,0 -1418.16,-634.93 -1418.16,-1418.16 0,-783.23 634.93,-1418.16 1418.16,-1418.16zm340.1 2187.63c-225.31,-101.48 -452.97,-269.38 -650.02,-493.92 -193.73,-220.75 -329.32,-463.72 -401.67,-696.66 -31.72,-64.24 -17.93,-144.7 38.33,-194.07l150.69 -132.25c67.09,-58.87 170.16,-52.16 229.03,14.93l166.03 189.19c58.87,67.08 52.16,170.15 -14.93,229.02l-139.6 122.51 435.57 496.33 139.6 -122.5c67.08,-58.89 170.15,-52.16 229.02,14.93l166.03 189.18c58.88,67.09 52.16,170.15 -14.94,229.03l-150.69 132.25c-51.6,45.29 -124.49,51.76 -182.18,21.8l-0.27 0.23z"/>
 </g>
</svg>
