<?xml version="1.0" encoding="UTF-8"?>
<!DOCTYPE svg PUBLIC "-//W3C//DTD SVG 1.1//EN" "http://www.w3.org/Graphics/SVG/1.1/DTD/svg11.dtd">
<!-- Creator: CorelDRAW 2018 (64-Bit) -->
<svg xmlns="http://www.w3.org/2000/svg" xml:space="preserve" width="35.85mm" height="37.533mm" version="1.1" style="shape-rendering:geometricPrecision; text-rendering:geometricPrecision; image-rendering:optimizeQuality; fill-rule:evenodd; clip-rule:evenodd"
viewBox="0 0 3585 3753.3"
 xmlns:xlink="http://www.w3.org/1999/xlink">
 <defs>
  <style type="text/css">
   <![CDATA[
    .fil0 {fill:#70BFFF}
   ]]>
  </style>
 </defs>
 <g id="Слой_x0020_1">
  <metadata id="CorelCorpID_0Corel-Layer"/>
  <path class="fil0" d="M1929.55 88.9l189.1 423.38c17.96,40.2 48.79,67.94 90.66,81.54 41.88,13.61 83.12,9.3 121.28,-12.67l401.85 -231.37c52.49,-30.22 114.13,-26.96 163.13,8.65 48.99,35.6 71.14,93.21 58.62,152.46l-95.87 453.67c-9.1,43.08 -0.45,83.64 25.42,119.26 25.88,35.62 61.79,56.37 105.57,61.03l461.08 49.02c60.22,6.4 108.18,45.27 126.89,102.87 18.72,57.6 2.77,117.23 -42.19,157.81l-344.21 310.67c-32.69,29.5 -49.53,67.4 -49.53,111.43 0,44.03 16.84,81.93 49.53,111.43l344.22 310.67c44.96,40.58 60.9,100.21 42.18,157.81 -18.71,57.6 -66.66,96.47 -126.89,102.87l-461.08 49.02c-43.78,4.66 -79.69,25.41 -105.56,61.03 -25.88,35.62 -34.53,76.18 -25.43,119.26l95.87 453.67c12.52,59.25 -9.63,116.87 -58.63,152.46 -49,35.6 -110.64,38.87 -163.12,8.65l-401.85 -231.37c-38.16,-21.97 -79.4,-26.28 -121.28,-12.67 -41.87,13.6 -72.7,41.34 -90.66,81.54l-189.1 423.37c-24.7,55.3 -76.49,88.89 -137.05,88.89 -60.56,0 -112.35,-33.59 -137.05,-88.89l-189.1 -423.37c-17.96,-40.2 -48.79,-67.94 -90.66,-81.54 -41.88,-13.61 -83.12,-9.3 -121.28,12.67l-401.85 231.37c-52.49,30.22 -114.13,26.96 -163.13,-8.65 -48.99,-35.6 -71.14,-93.21 -58.62,-152.46l95.87 -453.67c9.1,-43.08 0.45,-83.64 -25.42,-119.26 -25.88,-35.62 -61.79,-56.37 -105.57,-61.03l-461.08 -49.02c-60.22,-6.4 -108.18,-45.27 -126.89,-102.87 -18.72,-57.6 -2.77,-117.23 42.19,-157.81l344.21 -310.67c32.69,-29.5 49.53,-67.4 49.53,-111.43 0,-44.03 -16.84,-81.93 -49.53,-111.43l-344.22 -310.67c-44.96,-40.58 -60.9,-100.21 -42.18,-157.81 18.71,-57.6 66.66,-96.47 126.89,-102.87l461.08 -49.02c43.78,-4.66 79.69,-25.41 105.56,-61.03 25.88,-35.62 34.53,-76.18 25.43,-119.26l-95.87 -453.67c-12.52,-59.25 9.63,-116.87 58.63,-152.46 49,-35.6 110.64,-38.87 163.12,-8.65l401.85 231.37c38.16,21.97 79.4,26.28 121.28,12.67 41.87,-13.6 72.7,-41.34 90.66,-81.54l189.1 -423.38c24.7,-55.3 76.49,-88.88 137.05,-88.88 60.56,0 112.35,33.58 137.05,88.88z"/>
 </g>
</svg>
