<?xml version="1.0" encoding="UTF-8"?>
<!DOCTYPE svg PUBLIC "-//W3C//DTD SVG 1.1//EN" "http://www.w3.org/Graphics/SVG/1.1/DTD/svg11.dtd">
<!-- Creator: CorelDRAW 2018 (64-Bit) -->
<svg xmlns="http://www.w3.org/2000/svg" xml:space="preserve" width="41.063mm" height="41.063mm" version="1.1" style="shape-rendering:geometricPrecision; text-rendering:geometricPrecision; image-rendering:optimizeQuality; fill-rule:evenodd; clip-rule:evenodd"
viewBox="0 0 4106.3 4106.3"
 xmlns:xlink="http://www.w3.org/1999/xlink">
 <defs>
  <style type="text/css">
   <![CDATA[
    .fil0 {fill:#70BFFF}
    .fil1 {fill:white}
   ]]>
  </style>
 </defs>
 <g id="Слой_x0020_1">
  <metadata id="CorelCorpID_0Corel-Layer"/>
  <g id="_3060165576608">
   <circle class="fil0" cx="2053.15" cy="2053.15" r="2053.17"/>
   <path class="fil1" d="M2107.11 584.26c140,0 253.49,113.49 253.49,253.49 0,139.99 -113.49,253.48 -253.49,253.48 -139.99,0 -253.48,-113.49 -253.48,-253.48 0,-140 113.49,-253.49 253.48,-253.49zm-664.63 1161.49c82.36,0 149.11,66.75 149.11,149.11 0,82.36 -66.75,149.11 -149.11,149.11 -82.36,0 -149.11,-66.75 -149.11,-149.11 0,-82.36 66.75,-149.11 149.11,-149.11zm-176.74 -184.78l0 -288.65c0,-53.45 30.49,-99.09 79.87,-119.54 49.39,-20.45 103.23,-9.75 141.02,28.05l153.09 153.1c55.53,-13.63 113.48,-20.89 173.06,-20.89l588.67 0c401.55,0 730.06,328.7 730.06,730.06l0 0.01c0,275.45 -154.84,516.67 -381.71,640.91l27.2 101.51c23.36,87.19 -28.85,177.63 -116.04,200.99l-27.18 7.29c-87.19,23.36 -177.63,-28.86 -200.99,-116.05l-28.04 -104.63 -3.3 0.04 -588.67 0 -3.3 -0.03 -28.03 104.62c-23.37,87.19 -113.81,139.41 -201,116.05l-27.17 -7.29c-87.19,-23.36 -139.41,-113.8 -116.05,-200.99l27.2 -101.49c-145.03,-79.4 -260.62,-206.6 -325.14,-360.04 -5.09,0.39 -10.23,0.58 -15.41,0.58l-123.84 0c-112.89,0 -205.24,-92.44 -205.24,-205.24l0 -152.46c0,-112.81 92.44,-205.24 205.24,-205.24l123.84 0c5.17,0 10.29,0.19 15.38,0.58 31.09,-73.99 74.06,-141.88 126.48,-201.25zm510.09 105.11c-41.42,0 -75,-33.58 -75,-75 0,-41.42 33.58,-75 75,-75l662.58 0c41.42,0 75,33.58 75,75 0,41.42 -33.58,75 -75,75l-662.58 0z"/>
  </g>
 </g>
</svg>
