<?xml version="1.0" encoding="UTF-8"?>
<!DOCTYPE svg PUBLIC "-//W3C//DTD SVG 1.1//EN" "http://www.w3.org/Graphics/SVG/1.1/DTD/svg11.dtd">
<!-- Creator: CorelDRAW 2018 (64-Bit) -->
<svg xmlns="http://www.w3.org/2000/svg" xml:space="preserve" width="41.063mm" height="41.063mm" version="1.1" style="shape-rendering:geometricPrecision; text-rendering:geometricPrecision; image-rendering:optimizeQuality; fill-rule:evenodd; clip-rule:evenodd"
viewBox="0 0 4106.3 4106.3"
 xmlns:xlink="http://www.w3.org/1999/xlink">
 <defs>
  <style type="text/css">
   <![CDATA[
    .fil0 {fill:#70BFFF}
    .fil1 {fill:white}
   ]]>
  </style>
 </defs>
 <g id="Слой_x0020_1">
  <metadata id="CorelCorpID_0Corel-Layer"/>
  <g id="_3060177962416">
   <circle class="fil0" cx="2053.15" cy="2053.15" r="2053.17"/>
   <g>
    <path class="fil1" d="M2030.79 2412.39l-271.97 769.21c-6.36,18.01 -22.47,29.54 -41.55,29.79 -19.08,0.25 -35.49,-10.89 -42.3,-28.72l-59.53 -155.51c-4.85,-12.68 -14.06,-21.64 -26.85,-26.15 -12.78,-4.53 -25.58,-3.33 -37.31,3.47l-144.04 83.55c-16.5,9.57 -36.26,7.92 -50.95,-4.27 -14.68,-12.18 -19.97,-31.29 -13.59,-49.3l266.19 -752.86c122.08,79.14 266.59,126.62 421.9,130.79z"/>
    <path class="fil1" d="M2075.53 2412.39l271.97 769.21c6.36,18 22.47,29.54 41.55,29.79 19.08,0.25 35.49,-10.89 42.3,-28.71l59.53 -155.52c4.85,-12.67 14.05,-21.64 26.84,-26.15 12.78,-4.53 25.58,-3.33 37.31,3.47l144.04 83.54c16.51,9.58 36.27,7.93 50.96,-4.26 14.68,-12.19 19.95,-31.29 13.59,-49.28l-266.19 -752.89c-122.08,79.15 -266.59,126.63 -421.9,130.8z"/>
   </g>
   <path class="fil1" d="M2525.36 1122.69c-120.84,-120.84 -287.8,-195.59 -472.21,-195.59 -184.41,0 -351.37,74.75 -472.21,195.59 -120.84,120.84 -195.59,287.8 -195.59,472.21 0,184.41 74.75,351.37 195.59,472.21 120.84,120.84 287.8,195.59 472.21,195.59 184.41,0 351.37,-74.75 472.21,-195.59 120.84,-120.84 195.59,-287.8 195.59,-472.21 0,-184.41 -74.75,-351.37 -195.59,-472.21zm-422.03 151.91l66.38 145.04c8.27,18.06 24.12,29.58 43.85,31.86l158.46 18.31c21.94,2.53 39.32,16.75 46.15,37.77 6.83,21.01 1.13,42.73 -15.14,57.68l-117.43 107.95c-14.63,13.45 -20.68,32.07 -16.75,51.55l31.55 156.36c4.37,21.65 -3.78,42.58 -21.66,55.56 -17.87,12.99 -40.29,14.28 -59.53,3.43l-138.96 -78.32c-17.31,-9.76 -36.89,-9.76 -54.2,0l-138.95 78.32c-19.25,10.85 -41.67,9.56 -59.54,-3.43 -17.88,-12.98 -26.03,-33.91 -21.66,-55.56l31.55 -156.36c3.93,-19.48 -2.12,-38.1 -16.75,-51.55l-117.43 -107.95c-16.27,-14.95 -21.97,-36.67 -15.14,-57.68 6.83,-21.02 24.21,-35.24 46.15,-37.77l158.46 -18.31c19.73,-2.28 35.58,-13.8 43.85,-31.86l66.38 -145.04c9.19,-20.09 28.09,-32.23 50.18,-32.23 22.09,0 40.99,12.14 50.18,32.23z"/>
  </g>
 </g>
</svg>
