<?xml version="1.0" encoding="UTF-8"?>
<!DOCTYPE svg PUBLIC "-//W3C//DTD SVG 1.1//EN" "http://www.w3.org/Graphics/SVG/1.1/DTD/svg11.dtd">
<!-- Creator: CorelDRAW 2018 (64-Bit) -->
<svg xmlns="http://www.w3.org/2000/svg" xml:space="preserve" width="41.063mm" height="41.063mm" version="1.1" style="shape-rendering:geometricPrecision; text-rendering:geometricPrecision; image-rendering:optimizeQuality; fill-rule:evenodd; clip-rule:evenodd"
viewBox="0 0 4106.3 4106.3"
 xmlns:xlink="http://www.w3.org/1999/xlink">
 <defs>
  <style type="text/css">
   <![CDATA[
    .fil0 {fill:#70BFFF}
    .fil1 {fill:white}
   ]]>
  </style>
 </defs>
 <g id="Слой_x0020_1">
  <metadata id="CorelCorpID_0Corel-Layer"/>
  <g id="_3096367262608">
   <circle class="fil0" cx="2053.15" cy="2053.15" r="2053.17"/>
   <path class="fil1" d="M2551.49 1311.32c92.98,0 169.06,76.12 169.06,169.06l0 226.56 305.15 0c56.81,0 105.71,22.49 142.69,65.63l286.34 334.07c30.39,35.45 45.25,75.61 45.25,122.3l0 213.56c0,90.57 -73.87,164.44 -164.44,164.44l-183.44 0c4.9,19.42 7.51,39.76 7.51,60.7 0,136.62 -110.75,247.37 -247.37,247.37 -136.63,0 -247.38,-110.75 -247.38,-247.37 0,-20.94 2.61,-41.28 7.51,-60.7 -278.99,0 -557.97,0 -836.96,0 4.9,19.42 7.51,39.76 7.51,60.7 0,136.62 -110.75,247.37 -247.37,247.37 -136.63,0 -247.38,-110.75 -247.38,-247.37 0,-20.94 2.61,-41.28 7.51,-60.7l-212.55 0c-92.94,0 -169.06,-76.08 -169.06,-169.07l0 -299.71 706.08 0c57.86,0 104.79,-46.92 104.79,-104.78 0,-47.87 -32.11,-88.23 -75.95,-100.76 -3.65,0.38 -7.35,0.58 -11.1,0.58l-983.07 0c-57.87,0 -104.79,-46.92 -104.79,-104.79 0,-57.86 46.92,-104.78 104.79,-104.78l983.07 0 3.5 0.06c47.68,-9.82 83.55,-52.04 83.55,-102.62 0,-47.87 -32.11,-88.23 -75.95,-100.76 -3.65,0.38 -7.35,0.58 -11.1,0.58l-1192.64 0c-57.87,0 -104.79,-46.92 -104.79,-104.78 0,-57.87 46.92,-104.79 104.79,-104.79 682.08,0 1364.16,0 2046.24,0z"/>
  </g>
 </g>
</svg>
