<?xml version="1.0" encoding="UTF-8"?>
<!DOCTYPE svg PUBLIC "-//W3C//DTD SVG 1.1//EN" "http://www.w3.org/Graphics/SVG/1.1/DTD/svg11.dtd">
<!-- Creator: CorelDRAW 2018 (64-Bit) -->
<svg xmlns="http://www.w3.org/2000/svg" xml:space="preserve" width="41.063mm" height="41.063mm" version="1.1" style="shape-rendering:geometricPrecision; text-rendering:geometricPrecision; image-rendering:optimizeQuality; fill-rule:evenodd; clip-rule:evenodd"
viewBox="0 0 4106.3 4106.3"
 xmlns:xlink="http://www.w3.org/1999/xlink">
 <defs>
  <style type="text/css">
   <![CDATA[
    .fil0 {fill:#70BFFF}
    .fil1 {fill:white}
   ]]>
  </style>
 </defs>
 <g id="Слой_x0020_1">
  <metadata id="CorelCorpID_0Corel-Layer"/>
  <g id="_3060165939216">
   <circle class="fil0" cx="2053.15" cy="2053.15" r="2053.17"/>
   <path class="fil1" d="M1727.16 857.98l652 0c52.87,0 98.39,20.87 132.89,60.94 26.18,30.41 40.47,65.49 42.42,103.47l103.49 -1.27c89.29,-1.09 152.43,17.43 197.69,57.77 49.95,44.52 69.6,104.16 69.6,182.61 0,110.92 -64.91,270.21 -149.24,395.39 -85.85,127.43 -199.25,226.72 -302.48,226.72 -14.96,0 -29.65,-1.61 -44.03,-4.64l-19.1 127.18c-12.97,86.39 -86.07,149.33 -173.43,149.33l-63.63 0 0 235.88 0.18 0c2.08,93.85 78.8,169.28 173.14,169.28l0.24 0 0.24 0 0.24 0 0.24 0 0.23 0c4.7,-0.05 9.35,-0.29 13.94,-0.67l0 0.67 44.89 0c62.86,0 114.29,51.53 114.29,114.28l0 7.89c0,40.81 -21.8,76.86 -54.3,97.1l40.58 0c79.78,0 145.05,65.49 145.05,145.05l0 176.66c0,79.57 -65.49,145.05 -145.05,145.05l-911.56 0c-79.56,0 -145.05,-65.26 -145.05,-145.05l0 -176.66c0,-79.78 65.27,-145.05 145.05,-145.05l43.9 0c-32.48,-20.22 -54.25,-56.24 -54.25,-97.1l0 -7.89c0,-62.86 51.42,-114.28 114.28,-114.28l45.21 0 0 -0.67c4.59,0.38 9.24,0.62 13.94,0.67l0.23 0 0.24 0 0.24 0 0.24 0 0.24 0c92.96,0 168.82,-73.24 173,-165.18l0 -0.14 0.01 -0.12 0 -0.12 0.01 -0.13 0 -0.12 0.01 -0.12 0 -0.12 0.01 -0.13 0 -0.12 0.01 -0.12 0 -0.12 0.01 -0.13 0 -0.12 0.02 -0.49 0 -0.12 0.03 -0.74 0 -0.12 0.01 -0.25 0 -0.12 0.01 -0.12 0 -0.13 0 -0.12 0.01 -0.12 0 -0.12 0 -0.04 0.05 -3.91c0,-2.64 -0.07,-5.26 -0.19,-7.87l0 -224.1 -63.61 0c-87.36,0 -160.46,-62.87 -173.43,-149.33l-19.1 -127.19c-14.39,3.03 -29.08,4.65 -44.04,4.65 -103.23,0 -216.63,-99.29 -302.48,-226.72 -84.33,-125.18 -149.24,-284.47 -149.24,-395.39 0,-78.45 19.65,-138.09 69.6,-182.61 45.26,-40.34 108.4,-58.86 197.69,-57.77l103.48 1.27c1.94,-38 16.25,-73.05 42.44,-103.47 34.5,-40.07 80.02,-60.94 132.89,-60.94zm801.01 363.98l-68.85 458.43c4.96,2.09 9.71,3.22 14.21,3.22 30.05,0 84.45,-60.63 136.86,-138.44 64.9,-96.34 114.86,-211.46 114.86,-283.67 0,-20.32 -0.69,-31.85 -2.42,-33.39 -6.42,-5.72 -26.38,-8.21 -62.53,-7.77l-132.13 1.62zm-881.17 458.43l-68.85 -458.43 -132.14 -1.62c-36.15,-0.44 -56.11,2.05 -62.53,7.77 -1.73,1.54 -2.42,13.07 -2.42,33.39 0,72.21 49.96,187.33 114.86,283.67 52.41,77.81 106.81,138.44 136.86,138.44 4.5,0 9.26,-1.12 14.22,-3.22z"/>
  </g>
 </g>
</svg>
