<?xml version="1.0" encoding="UTF-8"?>
<!DOCTYPE svg PUBLIC "-//W3C//DTD SVG 1.1//EN" "http://www.w3.org/Graphics/SVG/1.1/DTD/svg11.dtd">
<!-- Creator: CorelDRAW 2018 (64-Bit) -->
<svg xmlns="http://www.w3.org/2000/svg" xml:space="preserve" width="28.363mm" height="28.363mm" version="1.1" style="shape-rendering:geometricPrecision; text-rendering:geometricPrecision; image-rendering:optimizeQuality; fill-rule:evenodd; clip-rule:evenodd"
viewBox="0 0 2836.3 2836.3"
 xmlns:xlink="http://www.w3.org/1999/xlink">
 <defs>
  <style type="text/css">
   <![CDATA[
    .fil0 {fill:#70BFFF}
   ]]>
  </style>
 </defs>
 <g id="Слой_x0020_1">
  <metadata id="CorelCorpID_0Corel-Layer"/>
  <path class="fil0" d="M1418.15 -0.01c783.23,0 1418.16,634.93 1418.16,1418.16 0,783.23 -634.93,1418.16 -1418.16,1418.16 -783.23,0 -1418.16,-634.93 -1418.16,-1418.16 0,-783.23 634.93,-1418.16 1418.16,-1418.16zm660.52 1055.2c11.36,-35.72 0,-61.7 -50.34,-61.7l-167.25 0c-42.22,0 -61.71,22.73 -73.07,47.09 0,0 -86.06,207.84 -206.23,342.62 -38.97,38.97 -56.83,51.96 -77.94,51.96 -11.36,0 -25.98,-12.99 -25.98,-48.71l0 -332.88c0,-42.22 -12.99,-61.71 -48.71,-61.71l-263.06 0c-25.98,0 -42.21,19.49 -42.21,38.97 0,40.6 60.08,50.34 66.57,164.01l0 246.82c0,53.58 -9.74,63.32 -30.85,63.32 -56.83,0 -194.86,-209.47 -277.67,-448.16 -16.24,-47.1 -32.48,-64.96 -74.7,-64.96l-168.87 0c-48.72,0 -56.83,22.73 -56.83,47.09 0,43.85 56.83,264.68 264.67,556.97 138.03,199.72 334.51,306.89 511.5,306.89 107.17,0 120.16,-24.35 120.16,-64.95l0 -151.01c0,-48.72 9.74,-56.83 43.84,-56.83 24.36,0 68.2,12.99 167.25,108.79 113.67,113.67 133.16,165.63 196.48,165.63l167.26 0c48.71,0 71.45,-24.36 58.46,-71.45 -14.62,-47.09 -69.83,-115.29 -141.28,-196.48 -38.97,-45.47 -97.42,-95.81 -115.29,-120.16 -24.35,-32.48 -17.86,-45.47 0,-74.7 -1.62,0 202.98,-289.03 224.09,-386.46z"/>
 </g>
</svg>
