<?xml version="1.0" encoding="UTF-8"?>
<!DOCTYPE svg PUBLIC "-//W3C//DTD SVG 1.1//EN" "http://www.w3.org/Graphics/SVG/1.1/DTD/svg11.dtd">
<!-- Creator: CorelDRAW X8 -->
<svg xmlns="http://www.w3.org/2000/svg" xml:space="preserve" width="930px" height="359px" version="1.1" style="shape-rendering:geometricPrecision; text-rendering:geometricPrecision; image-rendering:optimizeQuality; fill-rule:evenodd; clip-rule:evenodd"
viewBox="0 0 930 359"
 xmlns:xlink="http://www.w3.org/1999/xlink">
 <defs>
  <style type="text/css">
   <![CDATA[
    .fil3 {fill:#5D2001}
    .fil6 {fill:#742701}
    .fil8 {fill:#767C8D}
    .fil5 {fill:#843D17}
    .fil17 {fill:#892E01}
    .fil9 {fill:#999EAB}
    .fil2 {fill:#9A440A}
    .fil7 {fill:#ACB1BD}
    .fil11 {fill:#BE682D}
    .fil16 {fill:#BFC4D0}
    .fil15 {fill:#C66818}
    .fil1 {fill:#CB793E}
    .fil10 {fill:#D79454}
    .fil0 {fill:#DBDDE3}
    .fil14 {fill:#E7AB75}
    .fil12 {fill:#ECBB84}
    .fil4 {fill:#F9D3A4}
    .fil13 {fill:#FEFEFE}
    .fil18 {fill:white;fill-rule:nonzero}
   ]]>
  </style>
 </defs>
 <g id="Слой_x0020_1">
  <metadata id="CorelCorpID_0Corel-Layer"/>
  <g id="_1472041952832">
   <path class="fil0" d="M149 223l-5 -5c1,0 3,-4 4,-6l-1 2c3,-6 7,-14 10,-20 0,-1 1,-3 1,-4 3,-6 5,-9 8,-15l4 -10c1,-2 2,-3 3,-5 1,-2 0,-1 2,-5 2,-3 3,-6 5,-9l4 -9c0,0 0,0 0,-1 0,0 0,0 0,0l3 -6c-4,-2 -6,-3 -10,-5l-5 -2c-1,0 0,0 -1,1l-15 32c-2,5 -7,16 -10,22 -1,2 -1,3 -2,5 -5,9 -11,22 -16,28l-8 -2c1,-2 1,0 2,-2 1,-1 1,-2 2,-3 6,-13 13,-32 19,-45 1,-5 2,-7 5,-11 0,-1 1,-2 1,-3l5 -11c0,-1 1,-1 1,-2 1,-2 2,-4 3,-6 1,-2 2,-4 3,-6l-1 -1c-2,-1 -5,0 -6,-1 -1,1 -1,1 -2,1 -1,3 -11,29 -13,34 -1,2 -1,4 -2,6 -4,8 -8,19 -11,28 -2,4 -3,8 -5,12l-4 10c0,0 0,0 0,0 0,1 0,1 0,1 5,-1 14,3 18,5 5,2 9,4 13,8 2,1 3,2 4,3 0,-1 0,0 -1,-1l-2 -2z"/>
   <path class="fil1" d="M223 9c-2,-2 -8,-7 -11,-8 -3,5 -8,11 -12,16 -1,2 -2,3 -3,4l-10 12c-5,7 -13,16 -18,23l-10 12c-1,2 -2,3 -3,4 -2,3 -4,5 -6,8l-34 44c-1,1 -3,3 -4,4 2,0 2,0 4,0 4,1 7,4 10,3 3,-4 2,-2 3,-3 0,0 0,-1 0,-1l2 -2c0,0 1,-1 1,-1l7 -8c2,-2 5,-7 7,-10 2,-2 5,-7 6,-8 1,-1 3,-4 5,-5 1,-1 2,-3 3,-4l4 -7c0,0 1,0 1,0 0,-1 0,-1 1,-1l3 -4c3,-3 1,-2 4,-5l8 -10c2,-2 4,-5 6,-7 1,-1 1,-2 2,-3 0,0 0,0 0,0l4 -5c2,-3 3,-4 4,-6 1,-1 1,-1 2,-2 0,0 1,-1 1,-2l1 0c2,-2 4,-6 5,-7 2,-1 5,-7 6,-8 1,-1 1,0 2,-2 1,-1 2,-2 3,-3 4,-5 0,-3 3,-6 1,-1 1,-1 2,-2l1 0z"/>
   <path class="fil2" d="M109 309c-2,1 -8,8 -11,11 -3,2 -9,8 -12,9 1,-1 9,-12 10,-14 4,-5 7,-11 11,-16 5,-10 9,-18 13,-27 1,-1 5,-8 5,-9l-2 4c-1,-1 0,-2 0,-3 0,0 1,-1 1,-2 -3,3 -9,15 -11,17 3,-9 3,-10 5,-17 0,-2 1,-5 2,-6 2,-4 7,-20 7,-24 -1,2 -4,6 -6,7 -6,8 -13,18 -17,26 1,0 0,1 1,0 0,0 0,-1 0,-1l3 -3c4,-5 8,-9 12,-12 0,0 -14,22 -16,25 -4,7 -8,13 -12,21l-3 6c0,0 0,-1 0,-2 0,-1 0,-2 0,-3 0,-2 2,-15 3,-16l2 -11 1 -1c1,-4 5,-13 7,-17 2,-3 4,-6 6,-8 0,0 1,-1 1,-1 1,-1 4,-4 5,-4 0,1 -3,3 -3,4 -1,2 -3,4 -4,6 -4,8 -6,15 -9,23 -1,4 -2,8 -3,11 1,-3 4,-9 7,-12 0,-1 2,-3 2,-4 0,0 0,0 -1,1l3 -9c1,-3 3,-6 4,-9 3,-6 7,-11 10,-17 -2,0 -6,4 -8,5 -8,6 -14,15 -18,24 -1,2 -2,4 -3,6 0,-2 3,-9 4,-11 3,-10 10,-19 17,-26 2,-1 4,-3 5,-4 -1,0 -2,1 -3,1 -3,2 -5,3 -8,5 -2,2 -8,8 -8,10 -3,3 -10,15 -10,18 2,-3 3,-7 5,-10 1,1 1,0 0,3 0,0 -1,1 -1,1 0,0 0,1 0,1 0,0 0,0 0,1 1,-1 1,-1 1,0 -1,4 -3,10 -4,14 -2,12 -3,22 -5,34 -1,2 -2,6 -2,7 0,0 1,0 1,0 1,-1 0,0 1,0l-3 9c-2,4 -6,11 -8,15 0,1 -1,1 -1,2 -3,5 -5,7 -7,12l12 -8c7,-4 17,-13 22,-19 1,-2 3,-4 5,-6 2,-2 3,-4 5,-7z"/>
   <path class="fil3" d="M121 288c1,-2 1,-2 1,-4 1,-1 1,-2 2,-3 1,-3 2,-5 3,-7 1,-3 5,-13 5,-14 0,3 -1,5 -1,8 -1,2 -2,5 -2,8l1 -4c1,1 1,0 1,2l-1 7c0,0 0,0 0,0 3,-6 5,-11 6,-17 2,-4 4,-15 4,-16 0,5 0,10 0,14 0,1 0,1 0,1l1 -1c1,1 3,2 4,3 1,-4 1,-18 1,-23l-2 -6 -1 -4c-3,-5 -4,-5 -11,-9 -6,-2 -8,-3 -13,-2 -3,1 -2,1 -4,1l-1 1c-4,2 -7,3 -11,7 -1,1 -8,9 -8,11 -1,2 0,1 0,1 1,2 2,0 3,0 0,-2 6,-8 8,-10 3,-2 5,-3 8,-5 1,0 2,-1 3,-1 -1,1 -3,3 -5,4 -7,7 -14,16 -17,26 -1,2 -4,9 -4,11 1,-2 2,-4 3,-6 4,-9 10,-18 18,-24 2,-1 6,-5 8,-5 -3,6 -7,11 -10,17 -1,3 -3,6 -4,9l-3 9c1,-1 1,-1 1,-1l0 -1c4,-8 11,-18 17,-26 2,-1 5,-5 6,-7 0,4 -5,20 -7,24 -1,1 -2,4 -2,6 -2,7 -2,8 -5,17 2,-2 8,-14 11,-17 0,1 -1,2 -1,2 0,1 -1,2 0,3l2 -4 1 -4 -4 14c-2,4 -4,9 -6,14 -3,5 -5,9 -8,14 -2,5 -5,8 -8,13 4,-4 17,-21 21,-26z"/>
   <path class="fil4" d="M198 99c1,-1 1,-1 1,-1l2 -4c1,-3 2,-5 3,-7 2,-4 5,-9 6,-13 -1,1 1,1 -1,1l5 -9c2,-2 1,-2 1,-2 0,-1 1,-3 2,-4 0,-1 1,-3 2,-4l12 -24c1,-1 0,0 0,-2l-1 -1c-2,-2 -4,-5 -8,-7 -1,1 -12,16 -12,17 -1,2 -6,11 -8,14l-8 16c-1,2 0,0 0,1 -1,1 -1,2 -1,2 -1,2 0,0 0,2 -2,2 -3,5 -4,7 -1,2 -1,2 -2,3 0,1 -1,2 -2,3l-5 11c-1,2 -2,2 0,3 3,1 7,2 10,1 2,0 7,-1 8,-3z"/>
   <path class="fil5" d="M158 105l0 0 3 -5 1 0c1,-1 2,-2 2,-3 2,-2 36,-47 40,-51 1,-1 2,-2 3,-4l2 -3c1,0 0,0 1,0 0,-1 11,-16 12,-17l5 -6c0,0 0,0 0,-1l1 0c0,0 0,0 0,0 0,-1 0,-1 -1,-2 0,0 -1,-1 -1,-1 -1,-1 -2,-2 -3,-3l-1 0c-1,1 -1,1 -2,2 -3,3 1,1 -3,6 -1,1 -2,2 -3,3 -1,2 -1,1 -2,2 -1,1 -4,7 -6,8 -1,1 -3,5 -5,7l-1 0c0,1 -1,2 -1,2 -1,1 -1,1 -2,2 -1,2 -2,3 -4,6l-4 5c0,0 0,0 0,0 -1,1 -1,2 -2,3 -2,2 -4,5 -6,7l-8 10c-3,3 -1,2 -4,5l-3 4c-1,0 -1,0 -1,1 0,0 -1,0 -1,0l-4 7c-1,1 -2,3 -3,4 -2,1 -4,4 -5,5 -1,1 -4,6 -6,8 -2,3 -5,8 -7,10l-7 8c0,0 -1,1 -1,1l-2 2c0,0 0,1 0,1 -1,1 0,-1 -3,3 -3,1 -6,-2 -10,-3 -2,0 -2,0 -4,0l0 0c7,2 15,9 17,13 2,-1 9,-10 11,-13l11 -14c1,-1 6,-8 7,-9z"/>
   <path class="fil6" d="M69 354c-1,1 -3,2 -3,3 1,0 1,-1 2,-1 7,-3 14,-7 20,-11l0 -1c0,1 -1,2 -2,3 1,0 4,-2 5,-3 1,-1 1,-1 2,-2 6,-3 16,-13 20,-18 5,-4 10,-10 13,-15 3,-4 10,-15 11,-19 1,-2 2,-4 3,-7 3,-8 3,-8 4,-15 1,-1 1,-1 1,-2l0 -1c0,0 0,0 0,0 -1,-1 -3,-2 -4,-3l-1 1c0,0 0,0 0,-1 -1,5 -2,10 -3,15 -3,11 -11,27 -19,36 -2,2 -5,6 -6,6 -4,8 -15,17 -23,22 -4,3 -8,6 -12,8 -5,2 -6,2 -10,4 -2,0 -3,0 -4,1l15 -9c10,-7 18,-14 27,-24 3,-3 10,-12 12,-17 1,-2 4,-7 5,-10 1,-2 4,-9 5,-11 -2,3 -3,5 -4,7 -1,1 -1,2 -2,3l-2 3c0,0 0,0 0,0 -3,5 -7,9 -10,13 -2,3 -3,5 -5,7 -2,2 -4,4 -5,6 -5,6 -15,15 -22,19l-12 8c2,-5 4,-7 7,-12 0,-1 1,-1 1,-2 2,-4 6,-11 8,-15l3 -9c-1,0 0,-1 -1,0 0,0 -1,0 -1,0l-3 10c-1,3 -4,8 -5,10l-1 0c0,0 0,0 0,0 6,-13 5,-23 6,-35 2,-10 4,-24 9,-36 0,-3 7,-15 10,-18 -1,0 -2,2 -3,0 0,0 -1,1 0,-1 -3,2 -10,20 -10,22 -6,16 -5,25 -8,39 -1,3 -4,18 -6,20 0,-2 1,-6 1,-8l-2 7c-2,8 -5,16 -9,24 0,0 1,-1 1,-2l1 1c-1,1 -2,3 -3,5 0,1 0,2 -1,3 0,1 -1,2 -1,3 0,0 1,-1 2,-2 0,-1 1,-1 2,-2l0 0c-1,2 -3,4 -4,6 1,1 0,1 1,0 4,0 8,-3 10,-3z"/>
   <path class="fil0" d="M115 140l-2 -1 -5 7c-2,1 -1,1 -3,3 -1,2 -2,2 -3,4 0,0 0,0 0,0 0,0 0,0 0,0l-8 11c-2,1 -5,6 -6,7 -1,1 0,0 -1,1l-1 2c-2,1 -1,0 -3,3l-11 14c-1,2 -3,4 -4,5 0,0 -1,1 -1,2 -1,1 -1,1 -2,1 0,1 0,2 -1,2 -1,1 0,0 -1,1l-4 6 -3 -1c1,-1 2,-3 3,-4 2,-1 3,-3 4,-4 2,-3 4,-6 7,-9 6,-9 13,-18 20,-27l6 -9c2,-2 3,-3 4,-5 0,0 1,-1 1,-2 1,-1 1,-2 2,-2 1,-1 1,-1 2,-2 0,-1 1,-1 2,-2 1,-1 2,-3 3,-4l-2 -2 -2 0c-1,0 -1,1 -1,2l-19 24c-2,3 -4,6 -6,9l-27 37c5,1 12,6 13,10 0,-1 0,-3 -1,-4l5 -6c0,-1 1,-2 2,-2l1 -2c1,-1 5,-6 7,-9l9 -11c2,-2 2,-3 4,-5 1,-1 2,-2 3,-4 1,-2 0,1 3,-4 1,-1 1,-1 2,-2 1,-2 1,-1 2,-3l1 -2c1,-1 5,-5 5,-6l4 -5c1,0 0,0 1,0 1,-1 2,-3 2,-4 2,-1 3,-2 4,-4 -1,-1 -3,-4 -5,-4z"/>
   <path class="fil7" d="M172 123c-2,-1 -10,-4 -12,-4l1 1c-1,2 -2,4 -3,6 -1,2 -2,4 -3,6 0,1 -1,1 -1,2l-5 11c0,1 -1,2 -1,3 -3,4 -4,6 -5,11 -6,13 -13,32 -19,45 -1,1 -1,2 -2,3 -1,2 -1,0 -2,2l8 2c5,-6 11,-19 16,-28 1,-2 1,-3 2,-5 3,-6 8,-17 10,-22l15 -32c1,-1 0,-1 1,-1z"/>
   <path class="fil8" d="M144 236c3,0 4,0 5,-2 1,-1 1,-2 2,-3 1,-2 -2,-3 2,-4 2,-4 4,-7 6,-10 1,-2 1,-2 3,-5 1,-3 2,-3 3,-5 -1,-1 -1,0 0,-1l2 -4c-1,-1 1,-4 2,-5l4 -8c1,-1 0,0 2,-4 0,-1 1,-2 1,-3 1,-2 8,-16 10,-19 -2,1 -1,1 -1,1 0,-1 1,-2 1,-3 1,-3 4,-10 6,-11 0,-1 0,-1 0,-2l3 -7c1,-1 2,-2 2,-3 1,0 1,0 2,1l0 -1c-1,-1 -1,-1 -2,-1 1,-1 1,-2 2,-2 -2,-4 -19,-12 -23,-14 -10,-4 -12,-5 -23,-5l1 1 0 1c1,1 4,0 6,1 2,0 10,3 12,4l5 2c4,1 15,7 16,10l-1 2c1,0 1,0 1,0 -2,4 -5,8 -7,12 -2,4 -3,8 -5,12 -1,1 0,0 0,1 0,1 0,-1 -1,1 0,1 -1,2 -1,3l-10 18c1,0 0,0 1,0 0,-1 1,-2 1,-2 0,0 -10,18 -11,20 -1,4 -3,7 -5,11 -1,1 -4,9 -6,10l2 2c1,1 1,0 1,1 -1,-1 -2,-2 -4,-3 -4,-4 -8,-6 -13,-8 -4,-2 -13,-6 -18,-5 1,1 1,2 0,3 1,0 0,-1 2,0l-1 3 4 1 3 -3c3,0 16,6 19,9 0,1 -1,1 -1,2 0,0 0,0 0,1l-1 0c-1,0 -6,-3 -8,-3 -2,-2 -4,-2 -7,-3 -2,-1 -5,-2 -7,-2 -4,-1 -3,-1 -6,0 0,2 0,2 1,3 0,0 0,0 0,0 1,1 0,1 0,1 2,0 1,0 4,-1 5,-1 7,0 13,2 7,4 8,4 11,9l1 4z"/>
   <path class="fil6" d="M7 278c0,1 0,1 -1,1 1,0 2,0 3,-1 1,0 2,-1 3,-1l0 1c1,0 2,-1 3,-1 1,-1 1,-2 2,-2l0 1c3,-1 18,-13 23,-18 7,-7 11,-12 16,-22 1,0 4,-7 4,-8 -1,0 -2,-1 -2,-1 0,-2 0,-1 0,-1 -1,1 -1,1 -1,2l-3 -1c0,0 0,0 0,0 0,0 0,0 0,0l-2 -1c0,-1 0,-1 0,-1 -1,-1 -1,0 -1,0 0,0 0,-1 0,-1 0,0 0,0 0,0 0,0 0,-1 0,-1 0,1 0,1 -1,2 -4,6 -4,6 -9,12 -1,2 -2,3 -3,4 -2,2 -13,17 -14,17 0,-1 2,-3 2,-4l0 0c0,1 0,1 0,1 0,0 0,0 0,0l-4 4c-1,1 -2,3 -3,4 -1,0 -1,0 -3,3 -1,1 -2,2 -3,3 -4,3 -5,3 -7,5 0,0 0,0 -1,1l-3 4c2,1 4,-1 5,-1z"/>
   <path class="fil9" d="M177 125c4,2 6,3 10,5l-3 6c0,0 0,0 0,0 0,1 0,1 0,1l-4 9c-2,3 -3,6 -5,9 -2,4 -1,3 -2,5 -1,2 -2,3 -3,5l-4 10c-3,6 -5,9 -8,15 0,1 -1,3 -1,4 -3,6 -7,14 -10,20l1 -2c-1,2 -3,6 -4,6l5 5c2,-1 5,-9 6,-10 2,-4 4,-7 5,-11 1,-2 11,-20 11,-20 0,0 -1,1 -1,2 -1,0 0,0 -1,0l10 -18c0,-1 1,-2 1,-3 1,-2 1,0 1,-1 0,-1 -1,0 0,-1 2,-4 3,-8 5,-12 2,-4 5,-8 7,-12 0,0 0,0 -1,0l1 -2c-1,-3 -12,-9 -16,-10z"/>
   <path class="fil10" d="M243 52c1,-2 3,-8 5,-10l-3 -5c0,0 0,0 0,1l-5 10c-1,1 -1,2 -2,3 0,-2 0,-3 -1,-5l-1 -4c-2,3 -5,9 -7,13 -2,4 -5,9 -7,13 -5,8 -9,16 -15,24 -1,1 -1,2 -2,4 0,0 0,0 0,0l-7 13c-1,1 -1,1 -1,2l-9 -5c7,4 12,7 18,12 1,-5 6,-12 7,-15 1,-3 0,0 2,-3 1,-5 4,-9 6,-13 1,-3 1,-5 4,-9l4 -9c0,0 0,0 0,0 0,0 -1,1 0,0 3,-6 5,-11 8,-17 0,4 1,9 -1,14l7 -14z"/>
   <path class="fil8" d="M210 122l-4 -4c-6,-5 -11,-8 -18,-12 -3,-1 -7,-3 -10,-4 -2,0 -3,-1 -5,-1 -2,0 -3,-1 -5,-1 0,0 -5,0 -5,0 -1,0 0,0 -1,0l-1 0c3,1 7,0 10,2 0,0 1,0 1,0 0,0 0,0 0,0l8 2c4,2 13,5 17,9l-2 3c4,2 14,10 14,14 -2,-2 -1,-3 -4,-5 -6,-6 -13,-9 -20,-13 -6,-3 -14,-6 -21,-7 -3,0 -5,0 -6,0l0 0c0,1 0,1 1,2 -1,1 0,0 -1,1 1,0 4,0 5,0 2,0 5,1 6,1 1,0 1,0 2,1l6 2c2,1 4,1 7,3 2,1 5,3 7,4l5 2 -4 7c0,0 1,0 1,0 0,0 0,0 0,1 2,1 6,4 7,6 1,1 2,2 2,3 0,0 0,0 -2,-2 0,0 -1,-1 -1,-1 -1,0 -1,1 -2,2 1,0 1,0 2,1l0 1c-1,-1 -1,-1 -2,-1 0,1 -1,2 -2,3l-3 7c0,1 0,1 0,2 -2,1 -5,8 -6,11 0,1 -1,2 -1,3 0,0 -1,0 1,-1 -2,3 -9,17 -10,19 0,1 -1,2 -1,3 -2,4 -1,3 -2,4l-4 8c-1,1 -3,4 -2,5l-2 4c-1,1 -1,0 0,1 2,-4 2,-5 4,-8 1,-1 2,-2 2,-4l5 -8c1,-1 2,-2 2,-4 2,-3 4,-5 5,-8 1,-2 2,-3 2,-4 1,-1 2,-3 3,-4l5 -8c1,-3 3,-5 4,-8 1,-2 2,-3 3,-4 0,-2 1,-3 2,-5 0,0 0,-1 -1,-1 1,-1 1,-2 2,-1 2,-3 3,-4 5,-8 0,0 -1,-1 -1,-1 1,-1 1,-1 2,-1 1,-1 2,-3 2,-4 0,-2 -1,-3 -1,-4z"/>
   <path class="fil8" d="M129 141c-2,-4 -10,-11 -17,-13 0,0 -1,0 -2,0 0,1 0,1 -1,2 0,1 0,-1 0,1 1,0 3,1 4,1 4,2 7,4 10,7 -1,1 -1,2 -2,3 1,1 3,4 3,5 -3,-4 0,-2 -7,-7 -3,-3 -7,-5 -11,-6l1 0c-1,1 0,1 -1,1l2 0c1,1 6,3 7,5 2,0 4,3 5,4 -1,2 -2,3 -4,4 0,1 -1,3 -2,4 -1,0 0,0 -1,0l-4 5c0,1 -4,5 -5,6l-1 2c-1,2 -1,1 -2,3 -1,1 -1,1 -2,2 -3,5 -2,2 -3,4 -1,2 -2,3 -3,4 -2,2 -2,3 -4,5l-9 11c-2,3 -6,8 -7,9l-1 2c-1,0 -2,1 -2,2l-5 6c1,1 1,3 1,4 -1,-4 -8,-9 -13,-10 1,0 1,0 1,1 5,2 7,4 10,8l0 1c-2,-1 -1,-2 -4,-2 1,1 1,0 2,2 0,1 0,1 0,3 1,0 2,0 2,0 2,-1 1,-2 2,-3 2,-1 1,0 2,-1l10 -12c10,-12 21,-25 31,-37l12 -14c1,-1 1,-2 2,-2 0,0 1,-1 1,-1 0,-1 0,-1 0,-2 2,0 3,-2 4,-3 0,0 0,0 1,-1 1,-1 1,-2 0,-3z"/>
   <path class="fil11" d="M6 274c2,-2 3,-2 7,-5 1,-1 2,-2 3,-3 2,-3 2,-3 3,-3 1,-1 2,-3 3,-4l4 -4c0,0 0,0 0,0 0,0 0,0 0,-1l0 0c0,1 -2,3 -2,4 1,0 12,-15 14,-17 1,-1 2,-2 3,-4 5,-6 5,-6 9,-12 1,-1 1,-1 1,-2 1,-2 3,-3 3,-5l0 1c-1,0 -1,0 -1,0 -1,1 -2,2 -3,2 -1,2 -3,3 -4,5l-8 8c0,0 0,0 0,0l-1 1c2,-4 8,-11 11,-14 1,-1 2,-3 3,-4 0,1 -5,3 -6,4l-6 5 8 -10c1,0 3,-1 3,-2l-5 3c-1,0 -2,1 -3,2 0,0 0,1 -1,1 -1,1 0,1 -2,0 1,-1 4,-3 5,-4l5 -4c-3,0 -9,5 -11,7 -1,1 -1,2 -3,3 -12,13 -12,21 -19,35 -3,5 -4,7 -8,11 -1,1 -3,3 -3,4 0,0 1,-1 2,-1 0,0 0,0 0,0l0 -1c-1,2 -3,4 -4,5 1,1 3,-1 3,-1z"/>
   <path class="fil12" d="M168 100l1 -1c2,0 5,0 8,1 1,0 1,0 1,1l2 0c-2,-1 -1,-1 0,-3l5 -11c1,-1 2,-2 2,-3 1,-1 1,-1 2,-3 1,-2 2,-5 4,-7 0,-2 -1,0 0,-2 0,0 0,-1 1,-2 0,-1 -1,1 0,-1l8 -16c2,-3 7,-12 8,-14 -1,0 0,0 -1,0l-2 3c-1,2 -2,3 -3,4 -4,4 -38,49 -40,51 1,0 1,-1 0,0 0,1 0,1 0,1 0,1 -1,1 -1,2 0,0 5,0 5,0z"/>
   <path class="fil12" d="M207 92c6,-8 10,-16 15,-24 2,-4 5,-9 7,-13 2,-4 5,-10 7,-13l-2 -6c0,-2 -1,-4 -3,-6 0,2 1,1 0,2l-12 24c-1,1 -2,3 -2,4 -1,1 -2,3 -2,4 0,0 1,0 -1,2l-5 9c2,0 0,0 1,-1 -1,4 -4,9 -6,13 -1,2 -2,4 -3,7l-2 4c0,0 0,0 -1,1 3,0 7,-7 9,-7z"/>
   <path class="fil13" d="M149 195c3,-5 6,-11 9,-17 2,-5 5,-11 7,-16 2,-3 3,-6 4,-8 2,-3 7,-17 8,-20 1,-1 1,-3 1,-4 0,0 -1,0 -1,0l0 0c-4,3 -25,45 -27,51 -2,5 -8,17 -9,21 -1,2 -3,8 -3,9 0,2 -1,1 0,2 3,-3 8,-13 11,-18z"/>
   <path class="fil2" d="M140 262c0,-4 0,-9 0,-14 0,1 -2,12 -4,16 -1,6 -3,11 -6,17 0,0 0,0 0,0l1 -7c0,-2 0,-1 -1,-2l-1 4c0,-3 1,-6 2,-8 0,-3 1,-5 1,-8 0,1 -4,11 -5,14 -1,2 -2,4 -3,7 -1,1 -1,2 -2,3 0,2 0,2 -1,4 0,0 0,0 0,0 0,0 0,0 0,0 1,-1 1,-1 2,-1 0,1 0,1 1,1l-5 8c0,0 0,0 0,0l2 -3c1,-1 1,-2 2,-3 1,-2 2,-4 4,-7 -1,2 -4,9 -5,11 -1,3 -4,8 -5,10 0,0 1,-1 1,-2l3 2c-1,3 -2,6 -4,8 -2,3 -3,5 -5,7 1,0 4,-4 6,-6 8,-9 16,-25 19,-36 1,-5 2,-10 3,-15z"/>
   <path class="fil14" d="M243 52l-7 14c2,-5 1,-10 1,-14 -3,6 -5,11 -8,17 -1,1 0,0 0,0 0,0 0,0 0,0l-4 9c-3,4 -3,6 -4,9 -2,4 -5,8 -6,13 -2,3 -1,0 -2,3 -1,3 -6,10 -7,15l4 4c3,-5 5,-11 8,-17l5 -9c2,-5 4,-9 6,-13l7 -16c0,-1 1,-1 1,-2l3 -7c1,-1 1,-1 1,-2l2 -3c0,-2 0,-1 0,-1z"/>
   <path class="fil15" d="M95 241c0,-2 7,-10 8,-11 4,-4 7,-5 11,-7 -7,1 -16,8 -20,14 -12,16 -18,33 -20,52l-2 25c0,2 -1,6 -1,8 2,-2 5,-17 6,-20 3,-14 2,-23 8,-39 0,-2 7,-20 10,-22z"/>
   <path class="fil1" d="M82 311c0,-1 1,-5 2,-7 2,-12 3,-22 5,-34 1,-4 3,-10 4,-14 0,-1 0,-1 -1,0 0,-1 0,-1 0,-1 0,0 0,-1 0,-1 0,0 1,-1 1,-1 1,-3 1,-2 0,-3 -2,3 -3,7 -5,10 -5,12 -7,26 -9,36 -1,12 0,22 -6,35 0,0 0,0 0,0l1 0c1,-2 4,-7 5,-10l3 -10z"/>
   <path class="fil15" d="M104 265l0 1c0,1 -2,3 -2,4 -3,3 -6,9 -7,12 1,-3 2,-7 3,-11 3,-8 5,-15 9,-23 1,-2 3,-4 4,-6 0,-1 3,-3 3,-4 -1,0 -4,3 -5,4 0,0 -1,1 -1,1 -2,2 -4,5 -6,8 -2,4 -6,13 -7,17l-1 1c2,-4 3,-7 6,-11 -3,9 -6,18 -7,28l-1 3c2,-2 8,-14 12,-19 -3,7 -10,20 -14,27 0,0 0,0 0,0 0,0 -1,0 -1,0 0,-1 1,-3 1,-4l1 -9c0,-1 0,-1 0,-2l1 -2c-1,1 -3,14 -3,16 0,1 0,2 0,3 0,1 0,2 0,2l3 -6c4,-8 8,-14 12,-21 2,-3 16,-25 16,-25 -4,3 -8,7 -12,12l-3 3c0,0 0,1 0,1 -1,1 0,0 -1,0z"/>
   <path class="fil15" d="M109 309c3,-4 7,-8 10,-13l5 -8c-1,0 -1,0 -1,-1 -1,0 -1,0 -2,1 0,0 0,0 0,0 0,0 0,0 0,0 -4,5 -17,22 -21,26 3,-5 6,-8 8,-13 3,-5 5,-9 8,-14 2,-5 4,-10 6,-14l4 -14 -1 4c0,1 -4,8 -5,9 -4,9 -8,17 -13,27 -4,5 -7,11 -11,16 -1,2 -9,13 -10,14 3,-1 9,-7 12,-9 3,-3 9,-10 11,-11z"/>
   <path class="fil0" d="M199 135c0,0 1,1 1,1 2,2 2,2 2,2 0,-1 -1,-2 -2,-3 -1,-2 -5,-5 -7,-6l-5 -3 4 -7 -1 0c0,0 0,0 0,0 -2,-1 -5,-3 -7,-4 -3,-2 -5,-2 -7,-3 -2,1 -3,4 -4,6l-8 -2c1,-1 5,-6 4,-7 -1,0 -4,-1 -6,-1 -1,0 -4,0 -5,0 0,0 -1,0 -1,0 -1,1 -1,3 -2,4 -1,1 -1,3 -2,4 11,0 13,1 23,5 4,2 21,10 23,14z"/>
   <path class="fil16" d="M115 140c-1,-2 -6,-4 -7,-5l2 2c-1,1 -2,3 -3,4 -1,1 -2,1 -2,2 -1,1 -1,1 -2,2 -1,0 -1,1 -2,2 0,1 -1,2 -1,2 -1,2 -2,3 -4,5l-6 9c-7,9 -14,18 -20,27 -3,3 -5,6 -7,9 -1,1 -2,3 -4,4 -1,1 -2,3 -3,4l3 1 4 -6c1,-1 0,0 1,-1 1,0 1,-1 1,-2 1,0 1,0 2,-1 0,-1 1,-2 1,-2 1,-1 3,-3 4,-5l11 -14c2,-3 1,-2 3,-3l1 -2c1,-1 0,0 1,-1 1,-1 4,-6 6,-7l8 -11c0,0 0,0 0,0 0,0 0,0 0,0 1,-2 2,-2 3,-4 2,-2 1,-2 3,-3l5 -7 2 1z"/>
   <path class="fil15" d="M112 319c2,-2 3,-4 5,-7 2,-2 3,-5 4,-8l-3 -2c0,1 -1,2 -1,2 -2,5 -9,14 -12,17 -9,10 -17,17 -27,24l-15 9c1,-1 2,-1 4,-1 4,-2 5,-2 10,-4 4,-2 8,-5 12,-8 8,-5 19,-14 23,-22z"/>
   <path class="fil3" d="M51 223c0,0 0,1 0,1 0,0 0,0 0,0 0,0 0,1 0,1 0,0 0,-1 1,0 0,0 0,0 0,1l2 1c0,0 0,0 0,0 0,0 0,0 0,0l3 1c0,-1 0,-1 1,-2 0,0 0,-1 0,1 0,0 1,1 2,1 1,-2 2,-7 2,-8 0,-2 0,-2 0,-3 -1,-2 -1,-1 -2,-2 -1,-1 -2,-2 -4,-3 -1,-1 -2,-1 -3,-2 -1,0 -1,0 -1,1l0 0 -3 1 -5 4c-1,1 -4,3 -5,4 2,1 1,1 2,0 1,0 1,-1 1,-1 1,-1 2,-2 3,-2l5 -3c0,1 -2,2 -3,2l-8 10 6 -5c1,-1 6,-3 6,-4 -1,1 -2,3 -3,4 -3,3 -9,10 -11,14l1 -1c0,0 0,0 0,0l8 -8c1,-2 3,-3 4,-5 1,0 2,-1 3,-2 0,0 0,0 1,0l0 -1c0,2 -2,3 -3,5z"/>
   <path class="fil0" d="M180 104l-2 4 -8 -3c1,-1 1,-2 2,-3l-1 0c-3,-2 -7,-1 -10,-2l-3 5c1,0 3,0 6,0 7,1 15,4 21,7 7,4 14,7 20,13 3,2 2,3 4,5 0,-4 -10,-12 -14,-14l2 -3c-4,-4 -13,-7 -17,-9z"/>
   <path class="fil15" d="M49 239c0,0 -1,0 -1,1l3 -7c-2,4 -4,7 -6,10 -3,4 -5,5 -8,8l-14 12c-5,3 -3,1 -7,5 -1,1 -2,1 -4,3 -1,1 -2,1 -3,2 3,0 8,-5 10,-6 1,-1 0,1 3,-2 5,-2 9,-7 13,-10 2,-2 8,-8 9,-9 -1,2 -7,9 -9,11 -6,7 -16,14 -24,18l-6 2c3,0 5,-1 7,-2 5,-1 13,-6 18,-10 6,-6 10,-11 15,-18 2,-3 3,-5 4,-8z"/>
   <path class="fil14" d="M188 106l9 5c0,-1 0,-1 1,-2l7 -13c0,0 0,0 0,0 1,-2 1,-3 2,-4 -2,0 -6,7 -9,7 -1,2 -6,3 -8,3 -3,1 -7,0 -10,-1l-2 0c0,-1 0,-1 -1,-1 -3,-1 -6,-1 -8,-1l-1 1c2,0 3,1 5,1 2,0 3,1 5,1 3,1 7,3 10,4z"/>
   <path class="fil0" d="M117 213c-2,0 -1,0 -2,2 0,1 -1,2 -1,3 3,-1 2,-1 6,0 2,0 5,1 7,2 3,1 5,1 7,3 2,0 7,3 8,3l1 0c0,-1 0,-1 0,-1 0,-1 1,-1 1,-2 -3,-3 -16,-9 -19,-9l-3 3 -4 -1 1 -3c-2,-1 -1,0 -2,0z"/>
   <path class="fil10" d="M242 32c-1,-1 -6,-9 -7,-9l-1 -2c0,2 -1,3 -2,4 -1,2 -2,3 -2,4l1 1c2,2 3,4 3,6l2 6 5 -9c1,-1 0,-1 1,-1z"/>
   <path class="fil12" d="M94 269l-2 11 -1 2c0,1 0,1 0,2l-1 9c0,1 -1,3 -1,4 0,0 1,0 1,0 0,0 0,0 0,0 4,-7 11,-20 14,-27 -4,5 -10,17 -12,19l1 -3c1,-10 4,-19 7,-28 -3,4 -4,7 -6,11z"/>
   <path class="fil14" d="M235 23l-3 -5c-1,-1 -2,-2 -4,-3 0,0 0,0 0,0l-1 0c0,1 0,1 0,1l-5 6c4,2 6,5 8,7 0,-1 1,-2 2,-4 1,-1 2,-2 2,-4l1 2z"/>
   <path class="fil1" d="M245 37c-1,-1 -1,-2 -2,-2 0,-1 0,-2 -1,-3 -1,0 0,0 -1,1l-5 9 1 4c1,2 1,3 1,5 1,-1 1,-2 2,-3l5 -10c0,-1 0,-1 0,-1z"/>
   <path class="fil0" d="M109 131c0,0 0,0 -1,0 0,1 -1,2 -2,3 4,1 8,3 11,6 7,5 4,3 7,7 0,-1 -2,-4 -3,-5 1,-1 1,-2 2,-3 -3,-3 -6,-5 -10,-7 -1,0 -3,-1 -4,-1z"/>
   <path class="fil7" d="M177 112l-6 -2c-1,-1 -1,-1 -2,-1 1,1 -3,6 -4,7l8 2c1,-2 2,-5 4,-6z"/>
   <path class="fil16" d="M60 215c3,0 2,1 4,2l0 -1c-3,-4 -5,-6 -10,-8 -2,0 -3,1 -3,3 0,0 0,0 0,0l1 0 0 0c0,-1 0,-1 1,-1 1,1 2,1 3,2 2,1 3,2 4,3z"/>
   <path class="fil7" d="M191 119c0,0 0,0 0,0l1 0 -4 7 5 3c0,-1 0,-1 0,-1 0,0 -1,0 -1,0l4 -7 -5 -2z"/>
   <path class="fil7" d="M180 104l-8 -2c0,0 0,0 0,0 0,0 -1,0 -1,0l1 0c-1,1 -1,2 -2,3l8 3 2 -4z"/>
   <polygon class="fil17" points="12,278 11,278 11,278 "/>
  </g>
  <path class="fil18" d="M483 146l-25 0 -10 -26 -46 0 -10 26 -24 0 44 -115 25 0 46 115zm-42 -45l-16 -43 -16 43 32 0z"/>
  <path id="1" class="fil18" d="M496 146l0 -115 49 0c12,0 21,1 27,3 5,2 10,6 13,11 4,5 5,11 5,18 0,9 -2,16 -7,22 -5,5 -13,9 -23,10 5,3 9,7 12,10 4,4 8,10 14,19l14 22 -28 0 -17 -25c-6,-9 -10,-14 -12,-17 -2,-2 -5,-4 -7,-5 -3,0 -7,-1 -12,-1l-5 0 0 48 -23 0zm23 -66l17 0c12,0 19,-1 21,-2 3,-1 5,-2 7,-5 2,-2 2,-5 2,-8 0,-4 -1,-7 -3,-10 -2,-2 -5,-4 -9,-4 -1,-1 -7,-1 -17,-1l-18 0 0 30z"/>
  <polygon id="2" class="fil18" points="638,146 638,50 604,50 604,31 696,31 696,50 662,50 662,146 "/>
  <polygon id="3" class="fil18" points="699,116 699,93 743,93 743,116 "/>
  <path id="4" class="fil18" d="M379 211l47 0c9,0 16,0 20,1 5,1 9,2 12,5 4,2 7,5 9,9 2,4 4,9 4,14 0,5 -2,10 -5,15 -3,4 -7,8 -12,10 7,2 13,6 17,10 3,5 5,11 5,18 0,5 -1,10 -3,15 -3,5 -6,9 -11,12 -4,3 -9,5 -15,6 -4,0 -13,0 -28,0l-40 0 0 -115zm24 19l0 27 15 0c9,0 15,0 17,-1 4,0 7,-1 9,-4 3,-2 4,-5 4,-9 0,-3 -1,-6 -3,-8 -2,-3 -5,-4 -9,-4 -2,-1 -9,-1 -20,-1l-13 0zm0 46l0 31 21 0c9,0 14,0 16,-1 4,0 7,-2 9,-4 2,-3 3,-6 3,-10 0,-4 -1,-7 -2,-9 -2,-2 -4,-4 -8,-5 -3,-1 -10,-2 -20,-2l-19 0z"/>
  <path id="5" class="fil18" d="M496 326l0 -115 49 0c12,0 21,1 27,3 5,2 10,6 13,11 4,5 5,12 5,18 0,9 -2,16 -7,22 -5,5 -13,9 -23,10 5,3 9,7 12,10 4,4 8,10 14,19l14 22 -28 0 -17 -25c-6,-9 -10,-14 -12,-17 -2,-2 -5,-4 -7,-4 -3,-1 -7,-2 -12,-2l-5 0 0 48 -23 0zm23 -66l17 0c12,0 19,-1 21,-2 3,-1 5,-2 7,-4 2,-3 2,-6 2,-9 0,-4 -1,-7 -3,-10 -2,-2 -5,-3 -9,-4 -1,0 -7,-1 -17,-1l-18 0 0 30z"/>
  <path id="6" class="fil18" d="M612 211l24 0 0 63c0,9 0,16 1,19 1,5 3,8 7,11 3,3 8,5 15,5 6,0 11,-2 15,-5 3,-2 5,-6 6,-9 0,-4 1,-11 1,-20l0 -64 23 0 0 61c0,14 -1,23 -2,29 -1,6 -3,11 -7,15 -3,4 -8,7 -13,9 -6,2 -13,4 -22,4 -11,0 -20,-2 -25,-4 -6,-3 -11,-6 -14,-10 -3,-4 -5,-9 -6,-13 -2,-7 -3,-16 -3,-29l0 -62z"/>
  <path id="7" class="fil18" d="M723 289l22 -2c2,7 4,13 9,17 4,3 9,5 16,5 8,0 14,-2 17,-5 4,-3 6,-7 6,-11 0,-3 -1,-5 -2,-7 -2,-2 -5,-4 -9,-5 -2,-1 -9,-3 -18,-5 -13,-3 -21,-7 -26,-12 -8,-6 -11,-14 -11,-23 0,-6 2,-11 5,-16 3,-5 8,-9 14,-12 7,-3 14,-4 23,-4 14,0 25,3 33,10 7,6 11,14 11,25l-23 1c-1,-6 -3,-10 -7,-13 -3,-2 -8,-4 -14,-4 -7,0 -12,2 -16,4 -3,2 -4,5 -4,8 0,2 1,5 4,7 3,2 10,5 21,7 11,3 20,6 25,9 6,3 10,6 13,11 3,5 4,12 4,19 0,6 -1,13 -5,18 -4,6 -9,11 -16,13 -6,3 -15,5 -25,5 -14,0 -26,-4 -33,-11 -8,-6 -13,-16 -14,-29z"/>
  <polygon id="8" class="fil18" points="836,326 836,211 860,211 860,256 905,256 905,211 929,211 929,326 905,326 905,276 860,276 860,326 "/>
 </g>
</svg>
