<?xml version="1.0" encoding="utf-8"?>
<!-- Generator: Adobe Illustrator 23.0.0, SVG Export Plug-In . SVG Version: 6.00 Build 0)  -->
<svg version="1.1" id="Слой_1" xmlns="http://www.w3.org/2000/svg" xmlns:xlink="http://www.w3.org/1999/xlink" x="0px" y="0px"
	 viewBox="0 0 42 42" style="enable-background:new 0 0 42 42;" xml:space="preserve">
<style type="text/css">
	.st0{fill:#FFFFCC;}
</style>
<path class="st0" d="M25,0c-1.3,2.7-2.7,5.3-4,8v5h8V8C27.7,5.3,26.3,2.7,25,0z"/>
<path class="st0" d="M17,0c-1.3,2.7-2.7,5.3-4,8v5h8V8C19.7,5.3,18.3,2.7,17,0z"/>
<path class="st0" d="M25,42c1.3-2.7,2.7-5.3,4-8v-5h-8v5C22.3,36.7,23.7,39.3,25,42z"/>
<path class="st0" d="M17,42c1.3-2.7,2.7-5.3,4-8v-5h-8v5C14.3,36.7,15.7,39.3,17,42z"/>
<path class="st0" d="M0,25c2.7,1.3,5.3,2.7,8,4h5v-8H8C5.3,22.3,2.7,23.7,0,25z"/>
<path class="st0" d="M0,17c2.7,1.3,5.3,2.7,8,4h5v-8H8C5.3,14.3,2.7,15.7,0,17z"/>
<path class="st0" d="M42,25c-2.7,1.3-5.3,2.7-8,4h-5v-8h5C36.7,22.3,39.3,23.7,42,25z"/>
<path class="st0" d="M42,17c-2.7,1.3-5.3,2.7-8,4h-5v-8h5C36.7,14.3,39.3,15.7,42,17z"/>
<path class="st0" d="M41.1,0.4c-1.6,2.1-3.3,4.2-4.9,6.4l-3.5,3.5l-1.4-1.4l3.5-3.5C36.9,3.7,39,2.1,41.1,0.4z"/>
<path class="st0" d="M1.2,0.4c2.1,1.6,4.2,3.3,6.4,4.9l3.5,3.5l-1.4,1.4L6.1,6.8C4.5,4.6,2.8,2.5,1.2,0.4z"/>
<path class="st0" d="M9,42c1.3-2.7,2.7-5.3,4-8v-5H5v5C6.3,36.7,7.7,39.3,9,42z"/>
<path class="st0" d="M33,42c1.3-2.7,2.7-5.3,4-8v-5h-8v5C30.3,36.7,31.7,39.3,33,42z"/>
<g>
</g>
<g>
</g>
<g>
</g>
<g>
</g>
<g>
</g>
<g>
</g>
<g>
</g>
<g>
</g>
<g>
</g>
<g>
</g>
<g>
</g>
<g>
</g>
<g>
</g>
<g>
</g>
<g>
</g>
</svg>
